<?xml version="1.0" standalone="no"?>
<!DOCTYPE svg PUBLIC "-//W3C//DTD SVG 20010904//EN"
 "http://www.w3.org/TR/2001/REC-SVG-20010904/DTD/svg10.dtd">
<svg version="1.0" xmlns="http://www.w3.org/2000/svg"
 width="4096.000000pt" height="4096.000000pt" viewBox="0 0 4096.000000 4096.000000"
 preserveAspectRatio="xMidYMid meet">
<metadata>
Created by potrace 1.16, written by Peter Selinger 2001-2019
</metadata>
<g transform="translate(0.000000,4096.000000) scale(0.100000,-0.100000)"
fill="#3b2a1e" stroke="none">
<path d="M19465 38130 c-2 -4 7 -18 21 -31 14 -13 56 -60 94 -104 398 -470
449 -1085 139 -1695 -162 -320 -376 -566 -964 -1109 -373 -344 -686 -655 -804
-796 -741 -894 -713 -2073 69 -2878 257 -265 582 -473 916 -586 191 -65 197
-58 69 81 -445 481 -563 1105 -339 1786 158 484 443 843 1244 1566 123 112
471 467 534 546 199 248 352 539 435 825 87 304 91 681 10 990 -139 532 -548
1019 -1069 1275 -158 78 -345 146 -355 130z"/>
<path d="M22210 36313 c0 -3 20 -40 44 -82 106 -183 141 -317 141 -536 -1
-232 -39 -398 -144 -620 -134 -283 -347 -523 -901 -1015 -642 -571 -887 -862
-1044 -1243 -277 -669 -111 -1478 389 -1887 158 -129 366 -243 513 -281 97
-25 116 -11 72 51 -68 95 -181 373 -215 530 -26 118 -32 394 -10 500 91 450
370 849 935 1335 251 215 542 480 630 571 327 341 479 640 525 1034 76 642
-176 1187 -710 1536 -123 80 -225 129 -225 107z"/>
<path d="M18420 30209 c-656 -13 -1507 -42 -1870 -64 -2103 -126 -3546 -366
-4076 -678 -212 -124 -341 -287 -406 -512 l-23 -80 3 -770 c2 -423 7 -1116 12
-1540 6 -423 10 -1792 10 -3040 0 -2606 -1 -2564 86 -3023 120 -637 279 -1084
573 -1610 575 -1033 1614 -1909 2806 -2365 514 -196 982 -302 1610 -364 214
-21 4849 -33 5195 -13 569 32 1078 133 1555 308 772 284 1357 641 1934 1181
530 495 1004 1168 1227 1739 37 95 53 124 68 127 12 2 120 9 241 15 843 43
1425 179 2005 471 1010 508 1798 1438 2104 2484 194 662 260 1292 211 2017
-48 722 -188 1233 -478 1738 -469 819 -1178 1299 -2112 1429 -236 33 -432 41
-975 41 -278 0 -535 3 -572 6 l-67 7 -3 591 c-4 659 -2 634 -77 791 -92 192
-240 324 -495 440 -613 279 -2072 479 -4486 615 -1084 61 -2706 85 -4000 59z
m2730 -868 c124 -6 335 -15 470 -21 1896 -83 3976 -361 4651 -621 133 -51 130
-57 -71 -137 -713 -283 -2274 -494 -4225 -572 -832 -33 -3145 -39 -3970 -11
-2074 72 -3724 256 -4490 501 -106 34 -297 120 -309 138 -35 57 638 242 1304
361 1146 203 2524 325 4240 375 246 7 2194 -3 2400 -13z m7340 -3165 c846 -17
1407 -417 1629 -1161 77 -261 96 -442 95 -920 l0 -410 -32 -205 c-193 -1237
-886 -2059 -1977 -2345 -227 -60 -474 -95 -663 -95 l-83 0 3 683 c2 375 -3
1175 -11 1777 -13 1087 -13 2655 1 2676 7 11 479 11 1038 0z m-4574 -465 c459
-158 667 -676 448 -1118 -92 -187 -262 -328 -474 -395 -110 -34 -350 -34 -460
0 -535 168 -745 776 -425 1227 199 280 581 400 911 286z m-7051 -298 c50 -27
79 -57 102 -108 17 -37 18 -91 23 -665 l5 -625 615 -6 c684 -6 665 -4 736 -74
66 -66 65 -58 62 -735 -3 -675 0 -641 -75 -712 -57 -54 -42 -53 -713 -58
l-625 -5 -5 -645 c-6 -714 -1 -670 -72 -736 -77 -73 -36 -69 -708 -72 -652 -3
-658 -3 -730 49 -86 63 -85 55 -86 559 0 245 -1 536 -2 647 l-2 202 -637 3
-638 3 -42 22 c-47 25 -84 71 -102 122 -8 24 -11 213 -11 640 0 567 2 609 19
646 25 55 63 92 119 118 47 22 53 22 669 25 l622 3 3 622 c3 677 3 673 61 735
64 69 79 70 767 69 599 -2 605 -2 645 -24z m8659 -1373 c526 -134 763 -755
462 -1208 -266 -401 -819 -471 -1192 -152 -393 336 -338 995 105 1265 184 111
421 147 625 95z m-3314 -19 c462 -156 680 -666 470 -1096 -58 -119 -116 -195
-206 -269 -347 -286 -877 -222 -1148 138 -168 223 -202 548 -83 806 103 224
308 390 552 444 119 26 298 17 415 -23z m1690 -1726 c356 -114 580 -443 556
-816 -20 -319 -236 -590 -556 -701 -117 -40 -312 -47 -430 -14 -261 72 -484
276 -565 514 -153 452 116 933 580 1036 111 25 307 16 415 -19z"/>
<path d="M14855 14484 c-827 -62 -1469 -485 -1818 -1195 -323 -658 -269 -1540
130 -2147 393 -597 1073 -962 1798 -966 918 -5 1738 567 2028 1414 94 276 121
436 121 730 1 303 -27 474 -120 749 -279 821 -1056 1391 -1930 1415 -88 2
-181 2 -209 0z m385 -975 c572 -147 915 -698 840 -1349 -53 -461 -398 -874
-830 -992 -126 -34 -442 -34 -575 0 -468 121 -806 548 -840 1062 -43 650 372
1205 971 1300 99 15 337 4 434 -21z"/>
<path d="M10730 14465 c-806 -116 -1461 -690 -1689 -1478 -112 -387 -121 -836
-25 -1222 152 -608 518 -1074 1064 -1354 599 -308 1292 -317 1900 -25 238 115
452 274 479 357 22 66 22 66 -324 565 -81 116 -133 172 -163 172 -28 -1 -91
-33 -212 -110 -343 -219 -668 -279 -996 -184 -180 52 -305 126 -438 262 -250
253 -350 507 -350 882 1 243 36 405 129 590 187 371 508 588 900 606 278 14
499 -52 771 -227 148 -96 153 -93 316 132 228 318 303 444 295 495 -22 135
-451 398 -790 485 -246 63 -636 87 -867 54z"/>
<path d="M22678 14401 c-1180 -6 -1187 -6 -1215 -27 -69 -50 -63 128 -61
-2054 3 -1877 4 -1966 21 -1998 33 -61 48 -63 466 -65 358 -2 378 -1 416 18
84 42 79 1 85 777 l5 686 24 26 24 25 656 3 c724 3 693 1 738 67 23 34 23 36
23 380 0 329 -1 348 -20 379 -39 63 -23 62 -739 62 l-650 0 -28 24 -28 24 0
350 c0 364 3 388 44 409 9 4 376 8 816 8 860 0 831 -2 877 54 26 30 26 31 33
287 13 431 2 514 -69 551 -40 21 6 20 -1418 14z"/>
<path d="M26308 14401 c-1241 -6 -1247 -6 -1275 -27 -68 -50 -63 124 -63
-2034 0 -1302 4 -1957 10 -1982 12 -43 46 -73 104 -90 62 -19 2515 -19 2569 0
21 8 49 29 65 50 l27 35 0 368 c0 417 3 401 -85 447 l-44 22 -572 0 c-820 0
-1019 7 -1053 36 l-26 22 -3 306 -3 307 30 29 29 30 646 0 c696 0 725 2 771
50 36 37 44 111 44 410 1 330 -9 363 -119 394 -51 15 -133 16 -689 16 -502 -1
-637 2 -658 12 -53 25 -57 48 -58 343 0 281 5 323 43 342 10 4 384 10 833 13
799 5 817 5 839 25 53 48 54 56 58 416 5 370 0 404 -60 443 -35 23 -3 23
-1360 17z"/>
<path d="M29900 14401 c-960 -5 -1250 -9 -1267 -18 -11 -7 -30 -32 -42 -56
l-21 -43 0 -1940 c0 -1246 4 -1952 10 -1975 12 -42 54 -85 101 -101 43 -15
2232 -24 2425 -9 215 15 208 0 212 461 3 411 5 401 -91 445 l-52 25 -755 0
c-486 0 -768 4 -792 10 -77 22 -78 27 -77 344 0 317 4 341 59 369 33 16 70 17
580 11 300 -4 599 -3 664 1 195 12 196 16 196 440 1 290 0 298 -22 338 -48 87
-7 82 -743 82 -718 1 -705 -1 -722 63 -5 15 -8 156 -8 314 0 286 0 288 23 310
l23 23 822 5 c452 3 823 7 824 8 1 1 18 16 37 33 52 45 57 87 54 445 -3 342
-8 368 -70 400 -41 21 3 21 -1368 15z"/>
<path d="M17892 14380 c-73 -44 -67 128 -67 -2061 l0 -1966 27 -35 c44 -57 58
-59 485 -61 374 -2 389 -1 428 19 81 42 78 7 83 787 5 666 5 689 24 707 31 29
43 29 648 23 602 -6 690 -2 740 35 49 37 50 47 52 417 1 393 3 379 -82 423
l-44 22 -642 0 c-385 0 -653 4 -668 10 -55 20 -58 41 -54 394 3 286 5 325 20
349 36 54 4 52 829 49 829 -4 855 -3 902 46 45 47 47 65 47 414 0 317 -1 334
-21 375 -38 79 74 73 -1376 73 -1284 0 -1298 0 -1331 -20z"/>
<path d="M18585 9200 c-220 -35 -422 -175 -510 -354 -95 -192 -81 -456 33
-632 93 -143 213 -221 474 -310 365 -124 454 -207 396 -369 -35 -98 -126 -140
-303 -140 -163 0 -189 9 -407 144 -102 62 -106 60 -218 -107 -134 -203 -125
-244 81 -371 368 -226 873 -200 1130 58 311 313 286 776 -55 1015 -83 58 -175
99 -349 157 -260 86 -337 144 -337 252 0 120 89 186 250 187 116 0 184 -17
309 -75 110 -53 119 -54 153 -17 41 44 168 265 168 293 0 56 -155 164 -319
221 -136 47 -362 69 -496 48z"/>
<path d="M21660 9200 c-428 -54 -792 -363 -928 -790 -42 -134 -47 -171 -46
-355 0 -169 2 -187 32 -298 110 -419 445 -743 853 -827 147 -31 417 -24 560
13 245 64 503 218 561 335 23 46 23 53 26 411 5 441 1 484 -40 523 l-30 28
-395 0 c-444 0 -443 0 -464 -68 -18 -62 -8 -300 14 -334 26 -37 29 -38 231
-44 237 -7 230 -3 224 -133 -7 -133 -17 -151 -121 -200 -105 -50 -160 -61
-310 -61 -181 0 -265 29 -381 131 -321 281 -350 717 -67 999 133 133 274 190
468 190 139 0 199 -16 346 -90 146 -75 137 -78 281 101 136 170 137 184 19
262 -259 171 -546 242 -833 207z"/>
<path d="M30505 9196 c-448 -104 -671 -535 -478 -926 81 -165 216 -262 498
-360 312 -108 405 -179 405 -309 0 -55 -15 -90 -57 -133 -54 -55 -114 -72
-253 -72 -134 1 -199 19 -308 86 -138 84 -163 98 -181 98 -51 0 -231 -266
-231 -342 0 -81 223 -228 445 -294 233 -69 569 -32 739 81 69 46 201 184 244
258 108 181 123 430 36 603 -93 184 -269 312 -549 399 -272 85 -345 141 -345
262 0 204 258 251 554 102 104 -53 113 -50 180 54 115 180 138 224 127 246
-33 61 -244 184 -386 226 -112 33 -341 44 -440 21z"/>
<path d="M10767 9160 c-47 -9 -54 -18 -119 -160 -29 -62 -100 -211 -157 -330
-57 -118 -138 -289 -181 -380 -110 -235 -140 -284 -172 -288 -37 -4 -31 -14
-257 475 -290 626 -307 660 -329 672 -13 7 -101 11 -245 11 -215 0 -225 -1
-243 -21 -18 -20 -19 -55 -22 -1080 l-2 -1060 26 -24 c27 -25 29 -25 220 -25
l192 0 26 31 26 31 0 548 c0 497 2 548 16 554 29 11 43 -12 231 -391 129 -260
195 -381 215 -398 27 -23 37 -25 137 -25 79 0 112 4 128 15 12 9 63 95 114
193 178 343 202 388 258 490 52 95 86 130 107 110 2 -3 5 -255 7 -561 2 -530
3 -556 21 -576 18 -20 29 -21 213 -21 206 0 224 3 246 48 16 31 19 2092 3
2125 -19 41 -57 48 -244 46 -97 -1 -194 -5 -215 -9z"/>
<path d="M12455 9163 c-69 -10 -64 -1 -245 -508 -37 -104 -113 -316 -169 -469
-56 -153 -110 -302 -120 -330 -74 -204 -199 -545 -245 -669 -64 -168 -66 -187
-30 -216 25 -20 39 -21 233 -21 254 0 235 -12 310 191 30 79 62 156 73 171
l19 27 374 0 c366 1 375 0 394 -20 10 -11 41 -87 68 -167 33 -102 56 -156 75
-174 l26 -28 207 0 206 0 25 26 c33 32 30 51 -37 227 -28 73 -71 188 -96 257
-25 69 -63 170 -85 225 -51 126 -124 324 -348 935 -199 544 -190 526 -255 540
-39 9 -322 11 -380 3z m224 -750 c67 -134 229 -589 218 -616 -6 -15 -29 -17
-246 -17 l-241 0 -6 27 c-15 56 210 643 246 643 5 0 18 -17 29 -37z"/>
<path d="M14102 9159 c-49 -18 -47 27 -50 -1052 -3 -1060 -2 -1098 41 -1137
30 -29 392 -31 426 -2 34 28 41 104 41 472 0 330 1 348 19 364 30 27 51 13
111 -72 54 -76 290 -391 381 -507 25 -33 69 -94 97 -136 28 -42 67 -90 87
-108 l36 -31 243 0 c231 0 245 1 270 21 50 40 67 14 -481 759 -240 327 -237
323 -229 360 8 42 324 528 536 825 116 161 128 186 107 218 -23 36 -52 39
-297 35 l-213 -3 -28 -35 c-16 -19 -70 -99 -121 -177 -136 -207 -416 -618
-461 -675 -57 -75 -57 -77 -58 355 0 408 -5 488 -31 513 -16 16 -388 27 -426
13z"/>
<path d="M16741 9161 l-524 -6 -21 -28 -21 -28 0 -1051 0 -1050 28 -24 28 -24
652 0 c732 0 685 -5 706 75 20 74 14 315 -9 353 l-20 32 -428 0 c-423 0 -429
0 -448 21 -25 27 -29 354 -5 382 12 15 50 17 361 17 l348 0 26 31 c26 30 26
32 26 197 -1 247 27 232 -414 232 -299 0 -336 2 -351 17 -22 21 -19 339 3 365
11 14 69 16 432 19 l420 4 27 28 28 27 0 185 c0 241 9 229 -183 230 -75 1
-373 -1 -661 -4z"/>
<path d="M23786 9163 c-46 -7 -74 -31 -90 -76 -72 -197 -167 -460 -216 -597
-94 -265 -188 -525 -240 -665 -26 -71 -80 -215 -118 -320 -195 -532 -187 -502
-146 -534 25 -20 40 -21 221 -21 264 0 240 -16 313 213 47 144 66 172 112 163
17 -3 195 -6 397 -6 l367 0 17 -30 c10 -16 32 -73 49 -127 67 -214 65 -213
308 -213 288 0 287 -3 149 363 -122 323 -228 607 -299 802 -32 88 -95 257
-140 375 -45 118 -110 293 -146 388 -112 303 -93 286 -334 288 -96 1 -188 0
-204 -3z m238 -779 c36 -75 155 -382 192 -496 40 -124 52 -118 -229 -118 -301
0 -282 -17 -210 193 102 299 185 491 207 484 6 -2 24 -30 40 -63z"/>
<path d="M25475 9160 c-48 -19 -47 27 -46 -1102 l1 -1063 25 -22 c25 -22 33
-23 214 -23 l188 0 24 26 24 26 2 545 c1 342 5 549 11 555 19 19 53 -13 79
-70 41 -93 278 -565 322 -640 51 -88 67 -95 207 -90 l107 3 29 35 c16 19 63
100 105 180 211 408 307 582 321 587 41 16 42 -5 40 -574 l-3 -544 25 -19 c23
-18 43 -20 223 -20 197 0 198 0 222 25 l25 24 0 668 c0 367 3 772 6 898 10
338 -1 538 -31 573 l-23 27 -210 0 -211 0 -30 -29 c-16 -16 -53 -77 -82 -135
-190 -390 -342 -707 -358 -748 -51 -128 -111 -243 -136 -259 -44 -29 -65 -9
-118 107 -423 947 -464 1030 -513 1054 -35 17 -400 21 -439 5z"/>
<path d="M28170 9158 c-57 -19 -54 33 -57 -1070 -2 -608 1 -1034 6 -1059 18
-80 -37 -74 703 -77 l661 -2 24 22 c13 12 27 38 33 57 13 47 13 290 0 327 -21
59 -16 59 -477 62 -409 3 -422 4 -440 24 -16 18 -18 39 -18 185 0 224 -41 203
385 203 l338 0 26 31 c26 30 26 32 26 198 0 243 22 231 -414 231 -352 0 -348
-1 -362 55 -11 43 0 298 14 323 l13 22 400 0 c531 0 492 -18 497 235 l4 173
-30 33 -30 34 -639 1 c-351 0 -649 -3 -663 -8z"/>
<path d="M10370 5984 c-14 -2 -63 -9 -110 -15 -485 -63 -874 -308 -1048 -660
-67 -136 -94 -255 -100 -441 -13 -472 156 -755 601 -1005 146 -82 276 -137
592 -253 591 -216 720 -308 719 -510 -1 -188 -163 -303 -445 -317 -295 -15
-497 72 -838 360 -93 79 -157 116 -197 117 -41 0 -167 -106 -421 -354 -192
-187 -197 -209 -88 -351 208 -272 628 -523 1047 -625 780 -191 1598 103 1873
673 195 406 160 881 -91 1207 -162 212 -367 333 -834 494 -620 214 -740 266
-830 356 -135 133 -97 308 85 398 97 48 138 56 290 56 253 1 436 -71 635 -249
100 -89 166 -121 218 -104 59 19 340 312 453 473 75 106 64 165 -51 282 -247
253 -614 414 -1055 464 -84 9 -348 12 -405 4z"/>
<path d="M29235 5984 c-22 -2 -87 -9 -145 -15 -855 -90 -1591 -757 -1759
-1594 -43 -215 -46 -248 -45 -475 1 -414 101 -771 302 -1076 483 -733 1366
-1088 2232 -897 737 163 1329 702 1529 1394 89 306 107 723 45 1029 -170 837
-858 1489 -1706 1614 -105 16 -376 28 -453 20z m316 -970 c403 -69 717 -362
818 -763 159 -630 -153 -1223 -725 -1378 -137 -37 -442 -40 -566 -6 -398 111
-654 371 -758 768 -27 102 -38 342 -21 468 83 623 625 1018 1252 911z"/>
<path d="M12774 5905 c-37 -16 -91 -76 -100 -108 -3 -13 -4 -168 -2 -345 4
-466 -51 -431 676 -431 l442 -1 0 -1447 c0 -965 4 -1460 10 -1485 13 -46 52
-93 94 -115 41 -21 704 -33 775 -13 55 15 105 63 120 115 8 28 11 469 11 1492
l0 1452 498 3 c539 3 526 2 579 60 38 41 43 89 43 411 0 319 -1 328 -44 375
-49 55 31 52 -1580 51 -1232 0 -1496 -3 -1522 -14z"/>
<path d="M16808 5900 c-46 -24 -75 -61 -89 -112 -15 -58 -6 -2475 10 -2583 82
-540 336 -909 779 -1130 479 -240 1102 -266 1631 -68 423 157 702 444 841 860
91 277 91 277 88 1720 l-3 1221 -31 39 c-59 74 -56 73 -454 73 -397 0 -411 -3
-462 -71 -49 -66 -48 -34 -48 -1273 0 -1124 -1 -1175 -20 -1266 -69 -337 -350
-541 -710 -515 -279 19 -457 144 -560 392 -66 158 -63 90 -67 1388 -3 1241 -3
1219 -50 1276 -58 68 -63 69 -460 69 -334 -1 -360 -2 -395 -20z"/>
<path d="M21150 5909 c-44 -18 -92 -61 -106 -95 -12 -28 -14 -323 -14 -1877
l0 -1843 23 -44 c28 -56 73 -87 140 -95 91 -12 1534 1 1622 14 531 78 882 245
1210 575 298 301 480 662 542 1076 21 145 21 509 -1 646 -131 835 -745 1441
-1646 1627 -102 21 -129 21 -925 24 -536 1 -829 -1 -845 -8z m1461 -919 c312
-35 599 -190 754 -405 230 -322 269 -787 96 -1140 -155 -315 -435 -495 -856
-551 -138 -19 -539 -14 -559 6 -13 13 -22 1588 -11 1897 6 166 9 192 24 196
37 9 464 7 552 -3z"/>
<path d="M25536 5900 c-56 -28 -84 -58 -96 -99 -14 -51 -14 -3680 1 -3718 18
-50 60 -101 92 -114 46 -18 713 -25 772 -9 47 13 98 59 114 103 7 19 11 619
11 1878 l1 1850 -23 42 c-48 86 -51 87 -468 86 -343 0 -367 -1 -404 -19z"/>
</g>
</svg>
